   <svg width="168" height="154" viewBox="0 0 168 154" fill="none" xmlns="http://www.w3.org/2000/svg">
                        <path d="M47.8052 72.9058C47.8052 82.8469 55.864 90.9058 65.8052 90.9058L92.8052 90.9058C95.5666 90.9058 97.8052 88.6672 97.8052 85.9058L97.8052 51.9058C97.8052 46.383 93.328 41.9058 87.8052 41.9058L52.8052 41.9058C50.0437 41.9058 47.8052 44.1444 47.8052 46.9058L47.8052 72.9058Z" fill="#FFF1DA"/>
                        <path d="M96.3891 86.8472C95.0307 87.1514 93.7077 87.715 92.5022 88.5024C89.3614 90.5037 87.5341 93.3604 88.421 94.8826C89.308 96.4047 92.5731 96.0154 95.7138 94.0141C96.9356 93.2545 98.021 92.2837 98.9032 91.1618C99.3125 90.6197 99.386 89.9442 99.0908 89.4393L97.9386 87.4619C97.6454 86.9554 97.0374 86.7145 96.3891 86.8472Z" fill="#D5D6DB"/>
                        <path d="M88.5021 59.8541C87.5171 60.0748 86.5577 60.4837 85.6834 61.0547C83.4066 62.5055 82.0808 64.5769 82.7234 65.6797C83.366 66.7825 85.7345 66.4999 88.0111 65.0493C88.897 64.4982 89.6839 63.794 90.3237 62.9803C90.6202 62.5874 90.6733 62.098 90.4593 61.732L89.6251 60.3002C89.4128 59.933 88.9722 59.758 88.5021 59.8541Z" fill="#D5D6DB"/>
                        <path d="M75.688 60.9845C75.4687 60.9601 75.2349 61.0185 75.0322 61.148L69.684 64.5562C69.2366 64.8404 69.0576 65.3878 69.2845 65.779C69.3364 65.8686 69.4075 65.9451 69.4937 66.0041L82.6753 75.0891L100.509 63.7244L75.688 60.9845Z" fill="#029BC5"/>
                        <path d="M132.065 59.6999L83.5329 90.252L54.8201 101.677L40.177 104.588L38.566 101.851L119.461 51.9043C121.872 50.4095 124.558 49.4919 127.246 49.2448C128.424 49.1429 129.587 49.1821 130.708 49.3609C131.702 49.5116 132.645 49.8023 133.508 50.2244C134.472 50.7026 136.307 50.7578 136.901 51.7106C136.903 51.7091 138.305 56.0835 132.065 59.6999V59.6999Z" fill="#E1E6E9"/>
                        <path d="M84.1762 86.2095L63.1809 119.679C62.9187 120.15 63.0744 120.676 63.5283 120.855C63.8068 120.965 64.1477 120.922 64.4341 120.74L69.7781 117.35C70.806 116.697 71.7161 115.869 72.4523 114.915L113.169 67.0462L84.1762 86.2095Z" fill="#029BC5"/>
                        <path d="M31.1966 85.092C30.8464 84.9723 30.4296 85.0344 30.0778 85.2584L25.6603 88.0718C25.0584 88.4549 24.8185 89.1913 25.1244 89.717C25.1827 89.8169 25.2584 89.9049 25.3491 89.9773L37.7259 99.8896L50.7389 91.7615L31.1966 85.092Z" fill="#029BC5"/>
                        <path d="M41.8743 101.677L35.2128 111.006C35.1152 111.14 35.1381 111.308 35.2641 111.382C35.3549 111.435 35.4789 111.425 35.5797 111.358L39.708 108.742C39.74 108.721 39.7691 108.696 39.7931 108.667L49.5266 96.832L41.8743 101.677Z" fill="#029BC5"/>
                        <path d="M129.911 49.7631C128.757 49.5777 127.559 49.5381 126.346 49.6447C125.166 51.2958 124.411 53.1505 124.157 55.0239C124.139 55.4002 124.442 55.6711 124.835 55.6289C124.957 55.6156 125.079 55.5727 125.188 55.504L132.796 50.6597C131.906 50.2211 130.935 49.9193 129.911 49.7631Z" fill="#029BC5"/>
                        <path d="M113.332 58.6712L118.299 55.5342L122.926 63.4033L117.959 66.5402L113.332 58.6712Z" fill="#D5D6DB"/>
                        <path d="M110.207 61.7834C109.608 62.1626 109.369 62.8914 109.673 63.4111L110.165 64.2531C110.489 64.7595 111.228 64.8486 111.816 64.4519C112.376 64.0741 112.602 63.3874 112.332 62.8804L111.84 62.0384C111.536 61.5191 110.805 61.4049 110.207 61.7834V61.7834Z" fill="#3A556A"/>
                        <path d="M105.742 64.5559C105.144 64.935 104.904 65.6638 105.208 66.1835L105.701 67.0255C106.025 67.532 106.764 67.621 107.352 67.2243C107.912 66.8465 108.137 66.1599 107.868 65.6528L107.375 64.8109C107.071 64.2918 106.341 64.1775 105.742 64.5559V64.5559Z" fill="#3A556A"/>
                        <path d="M101.276 67.3292C100.679 67.7089 100.44 68.4368 100.744 68.956L101.236 69.798C101.56 70.3044 102.299 70.3935 102.887 69.9968C103.447 69.619 103.673 68.9324 103.403 68.4254L102.911 67.5834C102.607 67.0637 101.875 66.9499 101.276 67.3292V67.3292Z" fill="#3A556A"/>
                        <path d="M96.8121 70.1016C96.2142 70.4813 95.9758 71.2092 96.2794 71.7285L96.7717 72.5704C97.0956 73.0769 97.8348 73.166 98.4231 72.7693C98.9829 72.3915 99.2084 71.7048 98.9386 71.1978L98.4463 70.3558C98.1422 69.8362 97.4106 69.7224 96.8121 70.1016V70.1016Z" fill="#3A556A"/>
                        <path d="M92.3481 72.8743C91.7499 73.2541 91.5113 73.9823 91.8151 74.5018L92.3077 75.3441C92.6114 75.8634 93.3427 75.9771 93.941 75.5981C94.5394 75.2191 94.7783 74.491 94.4746 73.9717L93.982 73.1294C93.6791 72.6096 92.9481 72.4951 92.3494 72.8735L92.3481 72.8743Z" fill="#3A556A"/>
                        <path d="M87.8837 75.6467C87.2855 76.0265 87.047 76.7548 87.3508 77.2743L87.8434 78.1166C88.147 78.6359 88.8783 78.7496 89.4767 78.3706C90.075 77.9916 90.3139 77.2634 90.0103 76.7442L89.5177 75.9018C89.2148 75.3821 88.4838 75.2676 87.885 75.6459C87.8845 75.6462 87.884 75.6466 87.8837 75.6467Z" fill="#3A556A"/>
                        <path d="M83.4191 78.4193C82.8209 78.7991 82.5824 79.5273 82.8862 80.0468L83.3788 80.8891C83.6832 81.4078 84.4148 81.5204 85.0125 81.1409C85.6092 80.7621 85.8476 80.0355 85.5454 79.5168L85.0528 78.6745C84.7492 78.1549 84.018 78.0406 83.4191 78.4193Z" fill="#3A556A"/>
                        <path d="M78.9545 81.1918C78.3563 81.5716 78.1178 82.2998 78.4216 82.8193L78.9142 83.6616C79.2186 84.1804 79.9502 84.293 80.5479 83.9135C81.1446 83.5347 81.383 82.808 81.0808 82.2894L80.5882 81.447C80.2846 80.9274 79.5534 80.8131 78.9545 81.1918Z" fill="#3A556A"/>
                        <path d="M74.4903 83.9642C73.8921 84.344 73.6535 85.0722 73.9573 85.5917L74.4499 86.434C74.7543 86.9528 75.486 87.0653 76.0837 86.6859C76.6804 86.307 76.9188 85.5804 76.6165 85.0617L76.1239 84.2194C75.8201 83.7 75.0889 83.5856 74.4903 83.9642Z" fill="#3A556A"/>
                        <path d="M70.0245 86.7374C69.4261 87.1164 69.1872 87.8446 69.4909 88.3639L69.4915 88.365L69.9841 89.2073C70.2885 89.7261 71.0201 89.8387 71.6179 89.4592C72.2146 89.0803 72.453 88.3537 72.1507 87.835L71.6581 86.9927C71.3546 86.473 70.6233 86.3587 70.0245 86.7374Z" fill="#3A556A"/>
                        <path d="M65.5612 89.5091C64.9629 89.8881 64.724 90.6163 65.0276 91.1355L65.0283 91.1366L65.5209 91.9789C65.8253 92.4977 66.5569 92.6103 67.1546 92.2308C67.7514 91.852 67.9898 91.1253 67.6875 90.6067L67.1949 89.7644C66.8911 89.2449 66.1599 89.1306 65.5612 89.5091Z" fill="#3A556A"/>
                        </svg>