<svg width="16" height="16" viewBox="0 0 16 16" fill="none" xmlns="http://www.w3.org/2000/svg">
                                        <path d="M0.266665 15.4667H1.86667V6.66667C1.86667 6.5194 1.98607 6.4 2.13333 6.4H5.86667V0.266667C5.86667 0.1194 5.98607 0 6.13333 0H13.0667C13.2139 0 13.3333 0.1194 13.3333 0.266667V15.4667H15.7333C15.8806 15.4667 16 15.5861 16 15.7333C16 15.8806 15.8806 16 15.7333 16H0.266665C0.119399 16 0 15.8806 0 15.7333C0 15.5861 0.119399 15.4667 0.266665 15.4667ZM10.4 15.4667H11.4667V13.0667C11.4667 12.9194 11.3473 12.8 11.2 12.8H10.6667C10.5194 12.8 10.4 12.9194 10.4 13.0667V15.4667ZM9.33333 6.66667V15.4667H9.86667V13.0667C9.86667 12.6248 10.2248 12.2667 10.6667 12.2667H11.2C11.6418 12.2667 12 12.6248 12 13.0667V15.4667H12.8V0.533333H6.4V6.4H9.06667C9.21393 6.4 9.33333 6.5194 9.33333 6.66667ZM2.4 15.4667H8.8V6.93333H2.4V15.4667Z" fill="#84829A"/>
                                        <path d="M7.46683 3.7334H9.06683C9.2141 3.7334 9.3335 3.8528 9.3335 4.00007V5.60007C9.3335 5.74733 9.2141 5.86673 9.06683 5.86673H7.46683C7.31956 5.86673 7.20016 5.74733 7.20016 5.60007V4.00007C7.20016 3.8528 7.31956 3.7334 7.46683 3.7334ZM7.7335 5.3334H8.80016V4.26673H7.7335V5.3334Z" fill="#84829A"/>
                                        <path d="M7.46683 1.06641H9.06683C9.2141 1.06641 9.3335 1.18581 9.3335 1.33307V2.93307C9.3335 3.08034 9.2141 3.19974 9.06683 3.19974H7.46683C7.31956 3.19974 7.20016 3.08034 7.20016 2.93307V1.33307C7.20016 1.18581 7.31956 1.06641 7.46683 1.06641ZM7.7335 2.66641H8.80016V1.59974H7.7335V2.66641Z" fill="#84829A"/>
                                        <path d="M10.1333 3.7334H11.7333C11.8806 3.7334 12 3.8528 12 4.00007V5.60007C12 5.74733 11.8806 5.86673 11.7333 5.86673H10.1333C9.98607 5.86673 9.86667 5.74733 9.86667 5.60007V4.00007C9.86667 3.8528 9.98607 3.7334 10.1333 3.7334ZM10.4 5.3334H11.4667V4.26673H10.4V5.3334Z" fill="#84829A"/>
                                        <path d="M10.1333 1.06641H11.7333C11.8806 1.06641 12 1.18581 12 1.33307V2.93307C12 3.08034 11.8806 3.19974 11.7333 3.19974H10.1333C9.98607 3.19974 9.86667 3.08034 9.86667 2.93307V1.33307C9.86667 1.18581 9.98607 1.06641 10.1333 1.06641ZM10.4 2.66641H11.4667V1.59974H10.4V2.66641Z" fill="#84829A"/>
                                        <path d="M10.1333 6.3999H11.7333C11.8806 6.3999 12 6.5193 12 6.66657V8.26657C12 8.41384 11.8806 8.53324 11.7333 8.53324H10.1333C9.98607 8.53324 9.86667 8.41384 9.86667 8.26657V6.66657C9.86667 6.5193 9.98607 6.3999 10.1333 6.3999ZM10.4 7.9999H11.4667V6.93324H10.4V7.9999Z" fill="#84829A"/>
                                        <path d="M10.1333 9.06641H11.7333C11.8806 9.06641 12 9.18581 12 9.33307V10.9331C12 11.0803 11.8806 11.1997 11.7333 11.1997H10.1333C9.98607 11.1997 9.86667 11.0803 9.86667 10.9331V9.33307C9.86667 9.18581 9.98607 9.06641 10.1333 9.06641ZM10.4 10.6664H11.4667V9.59974H10.4V10.6664Z" fill="#84829A"/>
                                        <path d="M5.06683 12.2666H3.46683C3.31956 12.2666 3.20016 12.1472 3.20016 12V10.4C3.20016 10.2527 3.31956 10.1333 3.46683 10.1333H5.06683C5.2141 10.1333 5.3335 10.2527 5.3335 10.4V12C5.3335 12.1472 5.2141 12.2666 5.06683 12.2666ZM4.80016 10.6666H3.7335V11.7333H4.80016V10.6666Z" fill="#84829A"/>
                                        <path d="M5.06683 9.60013H3.46683C3.31956 9.60013 3.20016 9.48073 3.20016 9.33346V7.73346C3.20016 7.5862 3.31956 7.4668 3.46683 7.4668H5.06683C5.2141 7.4668 5.3335 7.5862 5.3335 7.73346V9.33346C5.3335 9.48073 5.2141 9.60013 5.06683 9.60013ZM4.80016 8.00013H3.7335V9.0668H4.80016V8.00013Z" fill="#84829A"/>
                                        <path d="M5.06683 14.9331H3.46683C3.31956 14.9331 3.20016 14.8137 3.20016 14.6665V13.0665C3.20016 12.9192 3.31956 12.7998 3.46683 12.7998H5.06683C5.2141 12.7998 5.3335 12.9192 5.3335 13.0665V14.6665C5.3335 14.8137 5.2141 14.9331 5.06683 14.9331ZM4.80016 13.3331H3.7335V14.3998H4.80016V13.3331Z" fill="#84829A"/>
                                        <path d="M7.73333 12.2666H6.13333C5.98607 12.2666 5.86667 12.1472 5.86667 12V10.4C5.86667 10.2527 5.98607 10.1333 6.13333 10.1333H7.73333C7.8806 10.1333 8 10.2527 8 10.4V12C8 12.1472 7.8806 12.2666 7.73333 12.2666ZM7.46667 10.6666H6.4V11.7333H7.46667V10.6666Z" fill="#84829A"/>
                                        <path d="M7.73333 9.60013H6.13333C5.98607 9.60013 5.86667 9.48073 5.86667 9.33346V7.73346C5.86667 7.5862 5.98607 7.4668 6.13333 7.4668H7.73333C7.8806 7.4668 8 7.5862 8 7.73346V9.33346C8 9.48073 7.8806 9.60013 7.73333 9.60013ZM7.46667 8.00013H6.4V9.0668H7.46667V8.00013Z" fill="#84829A"/>
                                        <path d="M7.73333 14.9331H6.13333C5.98607 14.9331 5.86667 14.8137 5.86667 14.6665V13.0665C5.86667 12.9192 5.98607 12.7998 6.13333 12.7998H7.73333C7.8806 12.7998 8 12.9192 8 13.0665V14.6665C8 14.8137 7.8806 14.9331 7.73333 14.9331ZM7.46667 13.3331H6.4V14.3998H7.46667V13.3331Z" fill="#84829A"/>
                                        </svg>