 <svg width="14" height="14" viewBox="0 0 14 14" fill="none" xmlns="http://www.w3.org/2000/svg">
                                    <path d="M12.3434 1.24264L6.02589 7.58347C5.95347 7.54151 5.87731 7.50636 5.79839 7.47847L1.62756 6.0668C1.50142 6.03519 1.38947 5.96234 1.30948 5.85982C1.22948 5.75731 1.18604 5.631 1.18604 5.50097C1.18604 5.37093 1.22948 5.24463 1.30948 5.14211C1.38947 5.0396 1.50142 4.96675 1.62756 4.93514L11.9759 1.2543C12.0435 1.23133 12.1145 1.21951 12.1859 1.2193C12.2393 1.21844 12.2925 1.22632 12.3434 1.24264Z" fill="#84829A"/>
                                    <path d="M12.7456 2.02424L9.06479 12.3842C9.0242 12.505 8.94521 12.6091 8.83987 12.6807C8.73454 12.7524 8.60866 12.7875 8.48145 12.7809C8.35278 12.7868 8.22578 12.7499 8.12026 12.6761C8.01473 12.6022 7.93663 12.4955 7.89812 12.3726L6.50979 8.20174C6.4819 8.12282 6.44675 8.04666 6.40479 7.97424L12.7573 1.65674C12.7931 1.77729 12.789 1.9062 12.7456 2.02424Z" fill="#84829A"/>
                                    </svg>